<svg id="Layer_1" data-name="Layer 1" xmlns="http://www.w3.org/2000/svg" viewBox="0 0 236.26 61.45"><defs><style>.cls-1{fill:#fff;}</style></defs><title>receipt-play</title><path class="cls-1" d="M236.26,61.45V.24c-.15-.07-.29-.16-.44-.24a18.26,18.26,0,0,1-9,2.38,18.26,18.26,0,0,1-9-2.38,18.3,18.3,0,0,1-9,2.38,18.29,18.29,0,0,1-9-2.38,18.29,18.29,0,0,1-9,2.38,18.3,18.3,0,0,1-9-2.38,18.29,18.29,0,0,1-9,2.38,18.23,18.23,0,0,1-9-2.38,18.3,18.3,0,0,1-9,2.38,18.29,18.29,0,0,1-9-2.38,18.29,18.29,0,0,1-9,2.38,18.3,18.3,0,0,1-9-2.38,18.29,18.29,0,0,1-9,2.38,18.23,18.23,0,0,1-9-2.38,18.3,18.3,0,0,1-9,2.38,18.29,18.29,0,0,1-9-2.38,18.29,18.29,0,0,1-9,2.38,18.3,18.3,0,0,1-9-2.38,18.29,18.29,0,0,1-9,2.38,18.3,18.3,0,0,1-9-2.38,18.23,18.23,0,0,1-9,2.38,18.29,18.29,0,0,1-9-2.38,18.3,18.3,0,0,1-9,2.38A18.29,18.29,0,0,1,19,0a18.29,18.29,0,0,1-9,2.38A18.3,18.3,0,0,1,1,0C.64.18.32.34,0,.49v61Z"/></svg>